Coordinates
version=1
nRows=6
nColumns=63
inDegrees=yes

Units are S.I. units (second, meters, Newtons, ...)
If the header above contains a line with 'inDegrees', this indicates whether rotational values are in degrees (yes) or radians (no).

endheader
time	pelvis_tilt	pelvis_list	pelvis_rotation	pelvis_tx	pelvis_ty	pelvis_tz	hip_flexion_r	hip_adduction_r	hip_rotation_r	knee_angle_r	knee_angle_r_beta	ankle_angle_r	subtalar_angle_r	mtp_angle_r	hip_flexion_l	hip_adduction_l	hip_rotation_l	knee_angle_l	knee_angle_l_beta	ankle_angle_l	subtalar_angle_l	mtp_angle_l	L5_S1_Flex_Ext	L5_S1_Lat_Bending	L5_S1_axial_rotation	L4_L5_Flex_Ext	L4_L5_Lat_Bending	L4_L5_axial_rotation	L3_L4_Flex_Ext	L3_L4_Lat_Bending	L3_L4_axial_rotation	L2_L3_Flex_Ext	L2_L3_Lat_Bending	L2_L3_axial_rotation	L1_L2_Flex_Ext	L1_L2_Lat_Bending	L1_L2_axial_rotation	L1_T12_Flex_Ext	L1_T12_Lat_Bending	L1_T12_axial_rotation	Abs_r3	Abs_r2	Abs_r1	Abs_t1	Abs_t2	neck_flexion	neck_bending	neck_rotation	arm_flex_r	arm_add_r	arm_rot_r	elbow_flex_r	pro_sup_r	wrist_flex_r	wrist_dev_r	arm_flex_l	arm_add_l	arm_rot_l	elbow_flex_l	pro_sup_l	wrist_flex_l	wrist_dev_l
      0.00000000	      2.96759295	     -3.65119641	     98.28966463	      0.23382312	      1.02331440	      0.41417276	      1.06389170	      3.84386486	     -1.20570370	      3.02186001	      0.05274141	     26.88852664	     -6.88761951	      0.00000000	      2.01754605	     -3.10372268	     14.07357501	      1.49395992	      0.02607452	     27.60521943	     -9.31738929	      0.00000000	      0.05639578	      0.42002821	     -1.11770893	      0.10473261	      0.55863751	     -1.18756573	      0.09265263	      1.02125658	     -1.18756573	      0.06445474	      1.02125658	     -0.97799531	      0.05236912	      0.85652152	     -0.90813850	      0.03222455	      0.65062369	     -0.83828169	      0.40282943	      4.75144306	     -6.21636173	      0.00000000	      0.00000000	     27.21707973	     -4.71309841	     -4.43662735	      1.81185149	    -21.70553619	     59.03432282	     38.10142907	     63.51360234	      2.71406591	      9.58986966	     -4.80461083	    -18.85802521	     41.25287229	     49.18466965	     78.42461253	     -5.90487060	     11.52484125
      0.01666667	      3.36892737	     -3.85165633	     99.16102453	      0.23177791	      1.02353373	      0.41670560	      1.54822244	      4.14032332	     -0.29230261	      2.82367515	      0.04928243	     26.20965399	     -9.60185796	      0.00000000	      2.68170180	     -3.32098050	     14.48647115	      1.87002200	      0.03263804	     26.72348121	     -9.26544900	      0.00000000	      0.06237016	      0.48885679	     -1.26023784	      0.11582762	      0.65017953	     -1.33900270	      0.10246793	      1.18860640	     -1.33900270	      0.07128285	      1.18860640	     -1.10270811	      0.05791693	      0.99687676	     -1.02394324	      0.03563831	      0.75723917	     -0.94517838	      0.44550380	      5.53004577	     -7.00906477	      0.00000000	      0.00000000	     27.10756847	     -5.20444801	     -3.99634851	      2.02422296	    -22.20340608	     57.96122261	     38.46022194	     65.98266355	      4.17845757	      9.80224799	     -3.05291380	    -18.51255241	     44.87914297	     47.51803721	     75.86885831	     -6.91497759	     10.04751016
      0.03333333	      3.74668098	     -4.08702809	    100.07544891	      0.22987466	      1.02373677	      0.41926865	      2.18922348	      4.31659132	     -2.22531824	      3.00651702	      0.05247362	     26.59853576	     -8.33534655	      0.00000000	      3.56866596	     -3.51854882	     12.93687398	      2.53247077	      0.04419995	     26.88843242	     -6.31593498	      0.00000000	      0.07475553	      0.55166046	     -1.43321624	      0.13882850	      0.73370842	     -1.52279225	      0.12281586	      1.34130725	     -1.52279225	      0.08543810	      1.34130725	     -1.25406421	      0.06941799	      1.12494602	     -1.16448819	      0.04271531	      0.85452206	     -1.07491218	      0.53397128	      6.24049351	     -7.97111876	      0.00000000	      0.00000000	     27.14267327	     -5.56136815	     -3.37719702	      2.68192382	    -22.73398148	     58.60634270	     38.64852240	     65.99844797	      5.23504510	      9.96073914	     -1.76750425	    -18.09364305	     47.40231571	     46.11938704	     74.34497125	     -7.15694295	      9.35114957
      0.05000000	      3.96720007	     -4.32410254	    100.48324061	      0.22894205	      1.02374504	      0.42098089	      2.61181537	      4.44166194	     -1.59473296	      2.92701275	      0.05108601	     26.21324575	     -9.99478758	      0.00000000	      4.09671524	     -3.59238403	     13.53054842	      2.68817107	      0.04691744	     26.35792751	     -6.91674997	      0.00000000	      0.09333363	      0.59113042	     -1.47598763	      0.17332989	      0.78620346	     -1.56823686	      0.15333783	      1.43727451	     -1.56823686	      0.10667101	      1.43727451	     -1.29148918	      0.08666961	      1.20543316	     -1.19923995	      0.05333084	      0.91566103	     -1.10699072	      0.66667282	      6.68698559	     -8.20900042	      0.00000000	      0.00000000	     27.19324279	     -5.97663712	     -3.02070110	      2.30204702	    -22.90708137	     56.15633216	     39.01326684	     69.00189013	      7.02242695	     11.27379725	     -0.74860996	    -17.84691815	     49.40537446	     45.15328402	     72.60191181	     -6.51609881	      9.61680525
      0.06666667	      4.11420502	     -4.49269241	    100.60080794	      0.22851487	      1.02397396	      0.42278962	      3.13212519	      4.40005150	     -4.36867426	      3.31763889	      0.05790372	     27.20879168	     -6.40313781	      0.00000000	      4.66377536	     -3.68043065	     10.97544637	      3.12610755	      0.05456087	     26.98849780	     -3.46802517	      0.00000000	      0.09485261	      0.61959152	     -1.48763917	      0.17615079	      0.82405672	     -1.58061661	      0.15583336	      1.50647481	     -1.58061661	      0.10840705	      1.50647481	     -1.30168427	      0.08808014	      1.26347102	     -1.20870682	      0.05419878	      0.95974726	     -1.11572937	      0.67752274	      7.00894316	     -8.27380275	      0.00000000	      0.00000000	     27.31361603	     -6.26143522	     -2.72341895	      2.85217301	    -23.33982812	     57.45558017	     39.27583778	     66.87584702	      6.95806535	     11.93276653	      0.04834174	    -17.67751699	     51.04278803	     44.40169534	     70.46760246	     -6.12755593	      9.97276578
      0.08333333	      4.27285273	     -4.77583398	    101.18674931	      0.22767499	      1.02372660	      0.42399089	      3.45019198	      4.50217666	     -3.24122591	      3.12888602	      0.05460936	     26.61025566	     -9.00880194	      0.00000000	      5.15878685	     -3.65808472	     13.31226595	      3.08498694	      0.05384318	     26.34414627	     -5.99697555	      0.00000000	      0.13304709	      0.64494720	     -1.55187397	      0.24708176	      0.85777978	     -1.64886609	      0.21858307	      1.56812463	     -1.64886609	      0.15205952	      1.56812463	     -1.35788972	      0.12354753	      1.31517634	     -1.26089760	      0.07602311	      0.99902322	     -1.16390548	      0.95034209	      7.29577177	     -8.63105746	      0.00000000	      0.00000000	     27.43872357	     -6.58310629	     -2.31158429	      2.44016529	    -23.50268717	     55.67538226	     39.59603800	     68.48015144	      8.68839718	     13.26782448	      0.46135964	    -17.54651615	     51.51218593	     44.08028803	     70.79065867	     -4.71457269	     11.67851276
